<svg width="6059" height="4144" preserveAspectRatio="none" fill="none" xmlns="http://www.w3.org/2000/svg">
<g clip-path="url(#clip0_24_449)">
<path d="M0 1161L144.3 1174.8C288.7 1188.7 577.3 1216.3 865.8 1085.2C1154.3 954 1442.7 664 1731.2 622.7C2019.7 581.3 2308.3 788.7 2596.8 892.3C2885.3 996 3173.7 996 3462.2 1058.2C3750.7 1120.3 4039.3 1244.7 4327.8 1203.2C4616.3 1161.7 4904.7 954.3 5193.2 926.7C5481.7 899 5770.3 1051 5914.7 1127L6059 1203V0H5914.7C5770.3 0 5481.7 0 5193.2 0C4904.7 0 4616.3 0 4327.8 0C4039.3 0 3750.7 0 3462.2 0C3173.7 0 2885.3 0 2596.8 0C2308.3 0 2019.7 0 1731.2 0C1442.7 0 1154.3 0 865.8 0C577.3 0 288.7 0 144.3 0H0V1161Z" fill="#6198FF"/>
<path d="M0 1949L144.3 2059.5C288.7 2170 577.3 2391 865.8 2501.5C1154.3 2612 1442.7 2612 1731.2 2605C2019.7 2598 2308.3 2584 2596.8 2445.8C2885.3 2307.7 3173.7 2045.3 3462.2 2093.7C3750.7 2142 4039.3 2501 4327.8 2618.3C4616.3 2735.7 4904.7 2611.3 5193.2 2507.8C5481.7 2404.3 5770.3 2321.7 5914.7 2280.3L6059 2239V1201L5914.7 1125C5770.3 1049 5481.7 897 5193.2 924.7C4904.7 952.3 4616.3 1159.7 4327.8 1201.2C4039.3 1242.7 3750.7 1118.3 3462.2 1056.2C3173.7 994 2885.3 994 2596.8 890.3C2308.3 786.7 2019.7 579.3 1731.2 620.7C1442.7 662 1154.3 952 865.8 1083.2C577.3 1214.3 288.7 1186.7 144.3 1172.8L0 1159V1949Z" fill="#2D77FF"/>
<path fill-rule="evenodd" clip-rule="evenodd" d="M6059 2237V3024V3026V3795.69C5375.98 3300.88 4635.09 3172.76 3916.67 3425.23C3712.25 3497.88 3511.26 3600.98 3310.23 3704.09C3131.05 3796 2951.84 3887.92 2770.14 3958.32C2220.95 4171.25 1649.02 4184.12 1100.69 3963.29C806.407 3845.06 506.132 3632.88 207.549 3421.9C138.243 3372.93 69.0276 3324.02 0 3276.36V3150V3148V1947L144.3 2057.5L144.9 2057.96C289.498 2168.61 577.699 2389.15 865.8 2499.5C1154.3 2610 1442.7 2610 1731.2 2603C2019.7 2596 2308.3 2582 2596.8 2443.8C2679.24 2404.34 2761.66 2354.73 2844.09 2305.12L2844.09 2305.12C3050.12 2181.12 3256.14 2057.13 3462.2 2091.7C3624.47 2118.87 3786.78 2244.33 3949.08 2369.79C4075.33 2467.39 4201.57 2564.98 4327.8 2616.3C4593.31 2724.35 4858.74 2627.59 5124.24 2530.8L5124.28 2530.79L5124.31 2530.78C5147.27 2522.41 5170.24 2514.04 5193.2 2505.8C5479.76 2403 5766.42 2320.81 5911.76 2279.14L5911.77 2279.14L5914.7 2278.3L6059 2237ZM0 4144V4145H144.3H865.8H1731.2H2596.8H3462.2H4327.8H5193.2H5914.7H6059V4144H0Z" fill="#004CBB"/>
</g>
<defs>
<clipPath id="clip0_24_449">
<rect width="6059" height="4144" fill="white"/>
</clipPath>
</defs>
</svg>
